<svg xmlns="http://www.w3.org/2000/svg" viewBox="0 0 1440 320">
  <path fill="#370566" fill-opacity="1" d="M0,160L30,165.3C60,171,120,181,180,170.7C240,160,300,128,360,133.3C420,139,480,181,540,192C600,203,660,181,720,154.7C780,128,840,96,900,96C960,96,1020,128,1080,170.7C1140,213,1200,267,1260,250.7C1320,235,1380,149,1410,106.7L1440,64L1440,320L1410,320C1380,320,1320,320,1260,320C1200,320,1140,320,1080,320C1020,320,960,320,900,320C840,320,780,320,720,320C660,320,600,320,540,320C480,320,420,320,360,320C300,320,240,320,180,320C120,320,60,320,30,320L0,320Z"></path>
</svg>